<?xml version="1.0" encoding="UTF-8" standalone="no"?><!-- Generator: Gravit.io --><svg xmlns="http://www.w3.org/2000/svg" xmlns:xlink="http://www.w3.org/1999/xlink" style="isolation:isolate" viewBox="0 0 12 14" width="12pt" height="14pt"><defs><clipPath id="_clipPath_yOmQnCBXiLzw99wHcJWUTjvHX9ppDsDz"><rect width="12" height="14"/></clipPath></defs><g clip-path="url(#_clipPath_yOmQnCBXiLzw99wHcJWUTjvHX9ppDsDz)"><path d=" M 3 0 L 3 1 L 2 1 L 2 2 L 1 2 L 1 5 L 0 5 L 0 10 L 1 10 L 1 13 L 2 13 L 2 14 L 10 14 L 10 13 L 11 13 L 11 10 L 12 10 L 12 5 L 11 5 L 11 2 L 10 2 L 10 1 L 9 1 L 9 0 L 3 0 Z " fill="rgb(66,23,7)"/><path d=" M 2 4 L 10 4 L 10 2 L 9 2 L 9 1 L 3 1 L 3 2 L 2 2 L 2 4 Z " fill="rgb(236,154,46)"/><path d=" M 8 2 L 8 1 L 3 1 L 3 2 L 2 2 L 2 3 L 3 3 L 3 2 L 8 2 Z " fill="rgb(254,183,90)"/><path d=" M 1 5 L 11 5 L 11 6 L 1 6 L 1 5 Z " fill="rgb(253,50,36)"/><path d=" M 1 7 L 11 7 L 11 8 L 1 8 L 1 7 Z " fill="rgb(165,71,35)"/><path d=" M 1 9 L 1 10 L 2 10 L 2 11 L 4 11 L 4 10 L 7 10 L 7 11 L 9 11 L 9 10 L 11 10 L 11 9 L 1 9 Z " fill="rgb(54,204,44)"/><path d=" M 2 12 L 2 13 L 10 13 L 10 11 L 9 11 L 9 12 L 7 12 L 7 11 L 4 11 L 4 12 L 2 12 Z " fill="rgb(236,154,46)"/><path d=" M 7 13 L 7 12 L 9 12 L 9 11 L 10 11 L 10 13 L 7 13 Z " fill="rgb(254,183,90)"/></g></svg>