<?xml version="1.0" encoding="UTF-8" standalone="no"?><!-- Generator: Gravit.io --><svg xmlns="http://www.w3.org/2000/svg" xmlns:xlink="http://www.w3.org/1999/xlink" style="isolation:isolate" viewBox="0 0 32 32" width="32pt" height="32pt"><defs><clipPath id="_clipPath_HPzvZAGAI23VbcxiEQB3tfZt3wB9QFa7"><rect width="32" height="32"/></clipPath></defs><g clip-path="url(#_clipPath_HPzvZAGAI23VbcxiEQB3tfZt3wB9QFa7)"><g><path d=" M 4.333 2.667 L 14.333 2.667 L 14.333 6 L 4.333 6 L 4.333 6 L 4.333 2.667 L 4.333 2.667 L 4.333 2.667 L 4.333 2.667 L 4.333 2.667 L 4.333 2.667 L 4.333 2.667 L 4.333 2.667 L 4.333 2.667 L 4.333 2.667 L 4.333 2.667 Z  M 17.667 2.667 L 27.667 2.667 L 27.667 6 L 17.667 6 L 17.667 2.667 L 17.667 2.667 L 17.667 2.667 L 17.667 2.667 L 17.667 2.667 L 17.667 2.667 L 17.667 2.667 L 17.667 2.667 L 17.667 2.667 L 17.667 2.667 L 17.667 2.667 Z  M 1 16 L 1 6 L 4.333 6 L 4.333 16 L 1 16 L 1 16 L 1 16 L 1 16 L 1 16 L 1 16 L 1 16 L 1 16 L 1 16 L 1 16 Z  M 27.667 16 L 27.667 6 L 31 6 L 31 16 L 27.667 16 L 27.667 16 L 27.667 16 L 27.667 16 L 27.667 16 L 27.667 16 L 27.667 16 L 27.667 16 L 27.667 16 Z  M 4.333 19.333 L 4.333 16 L 7.667 16 L 7.667 19.333 L 4.333 19.333 L 4.333 19.333 L 4.333 19.333 L 4.333 19.333 L 4.333 19.333 L 4.333 19.333 L 4.333 19.333 L 4.333 19.333 Z  M 14.333 9.333 L 14.333 6 L 17.667 6 L 17.667 9.333 L 14.333 9.333 L 14.333 9.333 L 14.333 9.333 L 14.333 9.333 L 14.333 9.333 L 14.333 9.333 L 14.333 9.333 Z  M 7.667 22.667 L 7.667 19.333 L 11 19.333 L 11 22.667 L 7.667 22.667 L 7.667 22.667 L 7.667 22.667 L 7.667 22.667 L 7.667 22.667 L 7.667 22.667 Z  M 11 26 L 11 22.667 L 14.333 22.667 L 14.333 26 L 11 26 L 11 26 L 11 26 L 11 26 L 11 26 Z  M 27.667 19.333 L 27.667 16 L 24.333 16 L 24.333 19.333 L 27.667 19.333 L 27.667 19.333 L 27.667 19.333 L 27.667 19.333 Z  M 24.333 22.667 L 24.333 19.333 L 21 19.333 L 21 22.667 L 21 22.667 L 24.333 22.667 L 24.333 22.667 L 24.333 22.667 Z  M 21 26 L 21 22.667 L 17.667 22.667 L 17.667 26 L 21 26 L 21 26 Z  M 14.333 29.333 L 14.333 26 L 17.667 26 L 17.667 29.333 L 14.333 29.333 Z " fill-rule="evenodd" fill="rgb(255,255,255)"/><path d=" M 4.333 6 L 5 5 L 14 5 L 14.333 6 L 16 8 L 17.667 6 L 20 5 L 26 5 L 27.667 6 L 29 8 L 29 14 L 27.667 16 L 26 18 L 24.333 19.333 L 21 22.667 L 17.667 26 L 16 29 L 14.333 26 L 11 22.667 L 7.667 19.333 L 4.333 16 L 3 12 L 3 8 L 4.333 6 Z " fill="rgb(255,255,255)"/></g></g></svg>