<?xml version="1.0" encoding="UTF-8" standalone="no"?><!-- Generator: Gravit.io --><svg xmlns="http://www.w3.org/2000/svg" xmlns:xlink="http://www.w3.org/1999/xlink" style="isolation:isolate" viewBox="0 0 346 80" width="346pt" height="80pt"><defs><clipPath id="_clipPath_LaJdZNaVgAJcMbwLsK6jYh3vEMFLlI1C"><rect width="346" height="80"/></clipPath></defs><g clip-path="url(#_clipPath_LaJdZNaVgAJcMbwLsK6jYh3vEMFLlI1C)"><g><path d=" M 18.25 16.341 L 17.159 15.25 L 10.25 15.25 L 10.25 22.159 L 11.341 23.25 L 18.25 23.25 L 18.25 16.341 Z " fill="rgb(242,242,242)"/><rect x="11.341" y="16.341" width="6.909" height="6.909" transform="matrix(1,0,0,1,0,0)" fill="rgb(225,225,225)"/><path d=" M 10.25 15.25 L 11.341 16.341 L 11.341 23.25 L 10.25 22.159 L 10.25 15.25 Z " fill="rgb(206,206,206)"/></g><g><path d=" M 34 48.818 L 33.182 48 L 28 48 L 28 53.182 L 28.818 54 L 34 54 L 34 48.818 Z " fill="rgb(242,242,242)"/><rect x="28.818" y="48.818" width="5.182" height="5.182" transform="matrix(1,0,0,1,0,0)" fill="rgb(225,225,225)"/><path d=" M 28 48 L 28.818 48.818 L 28.818 54 L 28 53.182 L 28 48 Z " fill="rgb(206,206,206)"/></g><g><path d=" M 71 56.227 L 69.773 55 L 62 55 L 62 62.773 L 63.227 64 L 71 64 L 71 56.227 Z " fill="rgb(242,242,242)"/><rect x="63.227" y="56.227" width="7.773" height="7.773" transform="matrix(1,0,0,1,0,0)" fill="rgb(225,225,225)"/><path d=" M 62 55 L 63.227 56.227 L 63.227 64 L 62 62.773 L 62 55 Z " fill="rgb(206,206,206)"/></g><g><path d=" M 96 36.591 L 94.909 35.5 L 88 35.5 L 88 42.409 L 89.091 43.5 L 96 43.5 L 96 36.591 Z " fill="rgb(242,242,242)"/><rect x="89.091" y="36.591" width="6.909" height="6.909" transform="matrix(1,0,0,1,0,0)" fill="rgb(225,225,225)"/><path d=" M 88 35.5 L 89.091 36.591 L 89.091 43.5 L 88 42.409 L 88 35.5 Z " fill="rgb(206,206,206)"/></g><g><path d=" M 168.25 60.591 L 167.159 59.5 L 160.25 59.5 L 160.25 66.409 L 161.341 67.5 L 168.25 67.5 L 168.25 60.591 Z " fill="rgb(242,242,242)"/><rect x="161.341" y="60.591" width="6.909" height="6.909" transform="matrix(1,0,0,1,0,0)" fill="rgb(225,225,225)"/><path d=" M 160.25 59.5 L 161.341 60.591 L 161.341 67.5 L 160.25 66.409 L 160.25 59.5 Z " fill="rgb(206,206,206)"/></g><g><path d=" M 118 60.455 L 117.045 59.5 L 111 59.5 L 111 65.545 L 111.955 66.5 L 118 66.5 L 118 60.455 Z " fill="rgb(242,242,242)"/><rect x="111.955" y="60.455" width="6.045" height="6.045" transform="matrix(1,0,0,1,0,0)" fill="rgb(225,225,225)"/><path d=" M 111 59.5 L 111.955 60.455 L 111.955 66.5 L 111 65.545 L 111 59.5 Z " fill="rgb(206,206,206)"/></g><g><path d=" M 167.875 11.239 L 166.886 10.25 L 160.625 10.25 L 160.625 16.511 L 161.614 17.5 L 167.875 17.5 L 167.875 11.239 Z " fill="rgb(242,242,242)"/><rect x="161.614" y="11.239" width="6.261" height="6.261" transform="matrix(1,0,0,1,0,0)" fill="rgb(225,225,225)"/><path d=" M 160.625 10.25 L 161.614 11.239 L 161.614 17.5 L 160.625 16.511 L 160.625 10.25 Z " fill="rgb(206,206,206)"/></g><g><path d=" M 145.5 30.364 L 144.511 29.375 L 138.25 29.375 L 138.25 35.636 L 139.239 36.625 L 145.5 36.625 L 145.5 30.364 Z " fill="rgb(242,242,242)"/><rect x="139.239" y="30.364" width="6.261" height="6.261" transform="matrix(1,0,0,1,0,0)" fill="rgb(225,225,225)"/><path d=" M 138.25 29.375 L 139.239 30.364 L 139.239 36.625 L 138.25 35.636 L 138.25 29.375 Z " fill="rgb(206,206,206)"/></g><g><path d=" M 122.375 42.136 L 121.864 41.625 L 118.625 41.625 L 118.625 44.864 L 119.136 45.375 L 122.375 45.375 L 122.375 42.136 Z " fill="rgb(242,242,242)"/><rect x="119.136" y="42.136" width="3.239" height="3.239" transform="matrix(1,0,0,1,0,0)" fill="rgb(225,225,225)"/><path d=" M 118.625 41.625 L 119.136 42.136 L 119.136 45.375 L 118.625 44.864 L 118.625 41.625 Z " fill="rgb(206,206,206)"/></g><g><path d=" M 189.25 40.989 L 188.261 40 L 182 40 L 182 46.261 L 182.989 47.25 L 189.25 47.25 L 189.25 40.989 Z " fill="rgb(242,242,242)"/><rect x="182.989" y="40.989" width="6.261" height="6.261" transform="matrix(1,0,0,1,0,0)" fill="rgb(225,225,225)"/><path d=" M 182 40 L 182.989 40.989 L 182.989 47.25 L 182 46.261 L 182 40 Z " fill="rgb(206,206,206)"/></g><g><path d=" M 211 16.682 L 210.318 16 L 206 16 L 206 20.318 L 206.682 21 L 211 21 L 211 16.682 Z " fill="rgb(242,242,242)"/><rect x="206.682" y="16.682" width="4.318" height="4.318" transform="matrix(1,0,0,1,0,0)" fill="rgb(225,225,225)"/><path d=" M 206 16 L 206.682 16.682 L 206.682 21 L 206 20.318 L 206 16 Z " fill="rgb(206,206,206)"/></g><g><path d=" M 225 57.818 L 224.182 57 L 219 57 L 219 62.182 L 219.818 63 L 225 63 L 225 57.818 Z " fill="rgb(242,242,242)"/><rect x="219.818" y="57.818" width="5.182" height="5.182" transform="matrix(1,0,0,1,0,0)" fill="rgb(225,225,225)"/><path d=" M 219 57 L 219.818 57.818 L 219.818 63 L 219 62.182 L 219 57 Z " fill="rgb(206,206,206)"/></g><g><path d=" M 246.75 20.307 L 245.693 19.25 L 239 19.25 L 239 25.943 L 240.057 27 L 246.75 27 L 246.75 20.307 Z " fill="rgb(242,242,242)"/><rect x="240.057" y="20.307" width="6.693" height="6.693" transform="matrix(1,0,0,1,0,0)" fill="rgb(225,225,225)"/><path d=" M 239 19.25 L 240.057 20.307 L 240.057 27 L 239 25.943 L 239 19.25 Z " fill="rgb(206,206,206)"/></g><g><path d=" M 120.5 12.057 L 119.818 11.375 L 115.5 11.375 L 115.5 15.693 L 116.182 16.375 L 120.5 16.375 L 120.5 12.057 Z " fill="rgb(242,242,242)"/><rect x="116.182" y="12.057" width="4.318" height="4.318" transform="matrix(1,0,0,1,0,0)" fill="rgb(225,225,225)"/><path d=" M 115.5 11.375 L 116.182 12.057 L 116.182 16.375 L 115.5 15.693 L 115.5 11.375 Z " fill="rgb(206,206,206)"/></g><g><path d=" M 80 9.955 L 79.045 9 L 73 9 L 73 15.045 L 73.955 16 L 80 16 L 80 9.955 Z " fill="rgb(242,242,242)"/><rect x="73.955" y="9.955" width="6.045" height="6.045" transform="matrix(1,0,0,1,0,0)" fill="rgb(225,225,225)"/><path d=" M 73 9 L 73.955 9.955 L 73.955 16 L 73 15.045 L 73 9 Z " fill="rgb(206,206,206)"/></g><g><path d=" M 13.5 66.386 L 12.614 65.5 L 7 65.5 L 7 71.114 L 7.886 72 L 13.5 72 L 13.5 66.386 Z " fill="rgb(242,242,242)"/><rect x="7.886" y="66.386" width="5.614" height="5.614" transform="matrix(1,0,0,1,0,0)" fill="rgb(225,225,225)"/><path d=" M 7 65.5 L 7.886 66.386 L 7.886 72 L 7 71.114 L 7 65.5 Z " fill="rgb(206,206,206)"/></g><g><path d=" M 51 20.136 L 50.114 19.25 L 44.5 19.25 L 44.5 24.864 L 45.386 25.75 L 51 25.75 L 51 20.136 Z " fill="rgb(242,242,242)"/><rect x="45.386" y="20.136" width="5.614" height="5.614" transform="matrix(1,0,0,1,0,0)" fill="rgb(225,225,225)"/><path d=" M 44.5 19.25 L 45.386 20.136 L 45.386 25.75 L 44.5 24.864 L 44.5 19.25 Z " fill="rgb(206,206,206)"/></g><g><path d=" M 225 57.818 L 224.182 57 L 219 57 L 219 62.182 L 219.818 63 L 225 63 L 225 57.818 Z " fill="rgb(242,242,242)"/><rect x="219.818" y="57.818" width="5.182" height="5.182" transform="matrix(1,0,0,1,0,0)" fill="rgb(225,225,225)"/><path d=" M 219 57 L 219.818 57.818 L 219.818 63 L 219 62.182 L 219 57 Z " fill="rgb(206,206,206)"/></g><g><path d=" M 248.125 44.222 L 247.528 43.625 L 243.75 43.625 L 243.75 47.403 L 244.347 48 L 248.125 48 L 248.125 44.222 Z " fill="rgb(242,242,242)"/><rect x="244.347" y="44.222" width="3.778" height="3.778" transform="matrix(1,0,0,1,0,0)" fill="rgb(225,225,225)"/><path d=" M 243.75 43.625 L 244.347 44.222 L 244.347 48 L 243.75 47.403 L 243.75 43.625 Z " fill="rgb(206,206,206)"/></g><g><path d=" M 274.375 61.142 L 273.233 60 L 266 60 L 266 67.233 L 267.142 68.375 L 274.375 68.375 L 274.375 61.142 Z " fill="rgb(242,242,242)"/><rect x="267.142" y="61.142" width="7.233" height="7.233" transform="matrix(1,0,0,1,0,0)" fill="rgb(225,225,225)"/><path d=" M 266 60 L 267.142 61.142 L 267.142 68.375 L 266 67.233 L 266 60 Z " fill="rgb(206,206,206)"/></g><g><path d=" M 279.125 9.96 L 278.29 9.125 L 273 9.125 L 273 14.415 L 273.835 15.25 L 279.125 15.25 L 279.125 9.96 Z " fill="rgb(242,242,242)"/><rect x="273.835" y="9.96" width="5.29" height="5.29" transform="matrix(1,0,0,1,0,0)" fill="rgb(225,225,225)"/><path d=" M 273 9.125 L 273.835 9.96 L 273.835 15.25 L 273 14.415 L 273 9.125 Z " fill="rgb(206,206,206)"/></g><g><path d=" M 281.563 37.29 L 280.898 36.625 L 276.688 36.625 L 276.688 40.835 L 277.352 41.5 L 281.563 41.5 L 281.563 37.29 Z " fill="rgb(242,242,242)"/><rect x="277.352" y="37.29" width="4.21" height="4.21" transform="matrix(1,0,0,1,0,0)" fill="rgb(225,225,225)"/><path d=" M 276.688 36.625 L 277.352 37.29 L 277.352 41.5 L 276.688 40.835 L 276.688 36.625 Z " fill="rgb(206,206,206)"/></g><g><path d=" M 308 47.915 L 307.335 47.25 L 303.125 47.25 L 303.125 51.46 L 303.79 52.125 L 308 52.125 L 308 47.915 Z " fill="rgb(242,242,242)"/><rect x="303.79" y="47.915" width="4.21" height="4.21" transform="matrix(1,0,0,1,0,0)" fill="rgb(225,225,225)"/><path d=" M 303.125 47.25 L 303.79 47.915 L 303.79 52.125 L 303.125 51.46 L 303.125 47.25 Z " fill="rgb(206,206,206)"/></g><g><path d=" M 326 65.96 L 324.79 64.75 L 317.125 64.75 L 317.125 72.415 L 318.335 73.625 L 326 73.625 L 326 65.96 Z " fill="rgb(242,242,242)"/><rect x="318.335" y="65.96" width="7.665" height="7.665" transform="matrix(1,0,0,1,0,0)" fill="rgb(225,225,225)"/><path d=" M 317.125 64.75 L 318.335 65.96 L 318.335 73.625 L 317.125 72.415 L 317.125 64.75 Z " fill="rgb(206,206,206)"/></g><g><path d=" M 328 15.815 L 327.122 14.937 L 321.562 14.937 L 321.562 20.497 L 322.44 21.375 L 328 21.375 L 328 15.815 Z " fill="rgb(242,242,242)"/><rect x="322.44" y="15.815" width="5.56" height="5.56" transform="matrix(1,0,0,1,0,0)" fill="rgb(225,225,225)"/><path d=" M 321.562 14.937 L 322.44 15.815 L 322.44 21.375 L 321.562 20.497 L 321.562 14.937 Z " fill="rgb(206,206,206)"/></g></g></svg>